<svg height='300px' width='300px'  fill="#000000" xmlns:dc="http://purl.org/dc/elements/1.1/" xmlns:cc="http://creativecommons.org/ns#" xmlns:rdf="http://www.w3.org/1999/02/22-rdf-syntax-ns#" xmlns:svg="http://www.w3.org/2000/svg" xmlns="http://www.w3.org/2000/svg" xmlns:sodipodi="http://sodipodi.sourceforge.net/DTD/sodipodi-0.dtd" xmlns:inkscape="http://www.inkscape.org/namespaces/inkscape" version="1.1" x="0px" y="0px" viewBox="0 0 100 100"><g transform="translate(0,-952.36218)"><path d="m 20.221325,1020.8842 c -0.3998,-0.012 -0.8023,0.1 -1.139,0.3156 -0.3367,0.2159 -0.606,0.5352 -0.762,0.9035 -0.9424,2.2263 -4.1373,7.6336 -5.5287,12.7318 -0.6957,2.5491 -1.0415,5.1605 0.0075,7.535 1.049,2.3746 3.6551,3.9472 7.1522,4.1591 0.0607,0 0.1217,0 0.1825,0 3.6635,-0.1131 6.3893,-1.5962 7.4922,-3.9991 1.1029,-2.4028 0.697,-5.048 -0.0494,-7.62 -0.7464,-2.5719 -1.9395,-5.1576 -3.0441,-7.4272 -1.1045,-2.2695 -2.1365,-4.2883 -2.4856,-5.2718 -0.1339,-0.3769 -0.3839,-0.7117 -0.7072,-0.9472 -0.3233,-0.2355 -0.7186,-0.3707 -1.1184,-0.3825 z" style="text-indent:0;text-transform:none;direction:ltr;block-progression:tb;baseline-shift:baseline;color:#000000;enable-background:accumulate;" fill="#000000" fill-opacity="1" fill-rule="evenodd" stroke="none" marker="none" visibility="visible" display="inline" overflow="visible"></path><path style="text-indent:0;text-transform:none;direction:ltr;block-progression:tb;baseline-shift:baseline;color:#000000;enable-background:accumulate;" d="m 43.699125,958.19512 c -0.9052,2e-4 -1.8057,0.1631 -2.6562,0.53125 -1.8147,0.7854 -3.457,2.27172 -5,4.28125 -3.0372,3.95517 -5.7547,10.13953 -7.75,18.65625 -0.7873,0.73292 -1.5579,1.49525 -2.3438,2.28125 -5.0393,5.03925 -9.0295,10.17286 -11.4688,14.5625 -1.2194,2.19478 -2.079,4.18578 -2.4374,6.03128 -0.35,1.8009 -0.2473,3.7243 1.0312,5.0937 0.024,0.027 0.068,0.068 0.094,0.094 l 35.125,35.125 c 1.3728,1.3719 3.3423,1.482 5.1874,1.125 1.8458,-0.3571 3.8375,-1.1872 6.0313,-2.4063 4.3875,-2.4381 9.5235,-6.4297 14.562504,-11.4687 5.0392,-5.0393 9.0295,-10.1743 11.4688,-14.5625 1.2194,-2.1941 2.0476,-4.187 2.4062,-6.0313 0.3499,-1.7995 0.2807,-3.7264 -1,-5.0937 -0.031,-0.035 -0.091,-0.061 -0.125,-0.094 L 52.136825,971.63262 c -0.5386,-6.44661 -2.156,-10.79851 -5.4687,-12.6875 -0.9004,-0.5134 -1.9429,-0.75022 -2.9688,-0.75 z m 0.062,3.9375 c 0.3183,0.006 0.5961,0.10445 0.9063,0.28125 1.0596,0.60421 2.5558,3.01393 3.25,7.5 -0.4604,0.0184 -0.9188,0.068 -1.375,0.15625 -1.8458,0.35707 -3.8686,1.18719 -6.0626,2.40625 -2.1196,1.17801 -4.4084,2.71738 -6.7812,4.5625 1.6715,-5.27177 3.6472,-9.17124 5.5312,-11.625 1.2664,-1.64922 2.4909,-2.60383 3.4063,-3 0.4577,-0.19808 0.8067,-0.28724 1.125,-0.28125 z m 8.7813,15.53125 31.468704,31.46873 c 0.032,0.032 0.2611,0.412 0.031,1.5937 -0.23,1.1818 -0.9107,2.9154 -2,4.875 -2.1785,3.9193 -5.9606,8.8355 -10.781304,13.6563 -4.821,4.821 -9.7701,8.6356 -13.6875,10.8125 -1.9588,1.0884 -3.6624,1.7402 -4.8438,1.9687 -1.1811,0.2286 -1.5565,0.01 -1.5937,-0.031 l -15.4687,-15.4375 c -0.034,-0.1389 -0.094,-0.2776 -0.1563,-0.4062 -1.44,-3.0454 -1.9684,-5.0816 -2.0313,-6.3438 -0.062,-1.2621 0.1931,-1.7603 0.6876,-2.4375 0.9881,-1.3543 3.8822,-3.1682 4.5312,-7.4687 0.01,-0.035 0,-0.09 0,-0.125 0.15,-1.554 -0.1341,-2.9294 -0.8125,-3.9375 -0.6783,-1.0081 -1.55,-1.5329 -2.1563,-1.9375 -1.0546,-0.7039 -1.5519,-0.7858 -1.7812,-2.2812 1.6651,-1.4243 3.3564,-2.98126 5.0312,-4.65628 3.3356,-3.33559 6.1994,-6.70106 8.4688,-9.875 -0.4308,3.03666 -1.0475,6.32486 -1.8438,9.90625 -1.3058,0.0682 -2.5743,0.51198 -3.6874,1.3125 l -0.031,0 c -0.2987,0.21722 -0.573,0.47929 -0.8437,0.75 -2.7142,2.71393 -2.7142,7.16103 0,9.87493 2.7157,2.702 7.159,2.702 9.875,0 2.7137,-2.7139 2.7137,-7.161 0,-9.87493 -0.4341,-0.43409 -0.8983,-0.79755 -1.4063,-1.09375 1.7014,-7.62883 2.5464,-14.13935 2.75,-19.53125 0.094,-0.26541 0.2036,-0.52189 0.2813,-0.78125 z m -6.625,23.34373 c 0.1864,-0 0.3778,0 0.5624,0.031 0.1515,0.058 0.3077,0.1051 0.4688,0.125 0.4345,0.1471 0.8117,0.3743 1.1562,0.7188 1.1861,1.1861 1.1861,3.0639 0,4.2499 -1.1831,1.1733 -3.0668,1.1734 -4.25,0 -9e-4,-6e-4 7e-4,-0.031 0,-0.031 -1.1827,-1.1862 -1.1849,-3.0337 0,-4.2187 0.1279,-0.1279 0.2358,-0.211 0.375,-0.3125 0.4961,-0.3553 1.1007,-0.5481 1.6876,-0.5625 z" fill="#000000" fill-opacity="1" fill-rule="evenodd" stroke="none" marker="none" visibility="visible" display="inline" overflow="visible"></path></g></svg>