<svg height='300px' width='300px'  fill="#000000" xmlns="http://www.w3.org/2000/svg" xmlns:xlink="http://www.w3.org/1999/xlink" xmlns:sketch="http://www.bohemiancoding.com/sketch/ns" viewBox="0 0 60 60" version="1.1" x="0px" y="0px"><title>10 - Pencil (Solid)</title><desc>Created with Sketch.</desc><g stroke="none" stroke-width="1" fill="none" fill-rule="evenodd" sketch:type="MSPage"><g sketch:type="MSLayerGroup" fill="#000000"><path d="M42.394,7.708 L5.258,44.844 L15.156,54.742 L52.292,17.606 L42.394,7.708" sketch:type="MSShapeGroup"></path><path d="M56.535,13.364 L57.95,11.949 C59.272,10.627 60,8.87 60,7 C60,5.13 59.272,3.373 57.95,2.051 C56.627,0.729 54.87,0 53,0 C51.13,0 49.373,0.729 48.05,2.051 L46.637,3.465 L56.535,13.364" sketch:type="MSShapeGroup"></path><path d="M4.113,46.527 L0.066,58.669 C-0.054,59.028 0.04,59.425 0.308,59.692 C0.498,59.883 0.754,59.985 1.015,59.985 C1.121,59.985 1.227,59.969 1.331,59.934 L13.472,55.886 L4.113,46.527" sketch:type="MSShapeGroup"></path><path d="M45.222,4.879 L43.808,6.294 L53.707,16.192 L55.121,14.778 L45.222,4.879" sketch:type="MSShapeGroup"></path></g></g></svg>